<?xml version="1.0" encoding="UTF-8"?>
<!DOCTYPE svg  PUBLIC '-//W3C//DTD SVG 1.1//EN'  'http://www.w3.org/Graphics/SVG/1.1/DTD/svg11.dtd'>
<svg clip-rule="evenodd" fill-rule="evenodd" stroke-linecap="round" stroke-linejoin="round" stroke-miterlimit="1.5" version="1.1" viewBox="0 0 300 300" xml:space="preserve" xmlns="http://www.w3.org/2000/svg">
    <path d="m182.63 230.78v37.863s5.805 3.318 9.245 10.149c0.904 9.173-7.294 18.806-8.855 21.211h-55.361c-1.561-2.405-9.758-12.038-8.855-21.211 3.441-6.831 9.246-10.149 9.246-10.149v-37.863s25.802-8.673 54.564 0" fill="#fbe9e0" stroke="#000" stroke-width=".83px"/>
    <g transform="matrix(-1 0 0 1 310.68 0)">
        <path d="m214.63 189.29s2.173 9.993 12.484-1.092c5.94-6.402 6.565-8.276 6.565-8.276s3.903-5.152 2.81-15.457-5.621-11.867-15.926-6.714c-10.305 5.152-5.933 31.539-5.933 31.539z" fill="#fbe9e0" stroke="#000" stroke-width=".83px"/>
    </g>
    <path d="m214.63 189.29s2.173 9.993 12.484-1.092c5.94-6.402 6.565-8.276 6.565-8.276s3.903-5.152 2.81-15.457-5.621-11.867-15.926-6.714c-10.305 5.152-5.933 31.539-5.933 31.539z" fill="#fbe9e0" stroke="#000" stroke-width=".83px"/>
    <path d="m155.34 245.19c24.485-6.638 46.489-20.016 57.246-43.699 4.454-9.808 6.032-20.467 9.022-30.71 0.936-3.21 2.04-6.369 3.171-9.515 0.531-1.477 1.247-2.897 2.09-4.221 0.383-0.6 0.974-1.047 1.542-1.476 2.295-4.434 4.601-8.888 6.365-13.559 5.12-13.556 8.172-30.777-0.261-43.748-15.261-23.474-55.424-21.111-79.175-18.91-23.752-2.201-63.915-4.564-79.176 18.91-8.432 12.971-5.381 30.192-0.261 43.748 1.765 4.671 4.07 9.125 6.366 13.559 0.567 0.429 1.158 0.876 1.541 1.476 0.844 1.324 1.559 2.744 2.09 4.221 1.131 3.146 2.235 6.305 3.172 9.515 2.99 10.243 4.567 20.902 9.022 30.71 10.756 23.683 32.76 37.061 57.246 43.699" fill="#fbe9e0" stroke="#000" stroke-width=".83px"/>
    <g transform="translate(0 3)">
        <path d="m155.34 125.14s-6.678-6.587-14.241-11.71c-4.147-3.172-5.367-3.416-10.978-10.003-9.271 2.44-7.563 15.614-7.563 15.614s5.611 8.051 16.834 18.053c8.782 7.319 15.948 15.614 15.948 15.614s7.165-8.295 15.948-15.614c11.222-10.002 16.833-18.053 16.833-18.053s1.708-13.174-7.563-15.614c-5.611 6.587-6.831 6.831-10.978 10.003-7.563 5.123-14.24 11.71-14.24 11.71" fill="#dec62b" stroke="#000" stroke-width=".83px"/>
    </g>
    <path d="m213.71 199.42s0.515 6.316 3.633 6.076c2.718-0.48 2.957-2.878 3.357-3.997 0.72 2.958 2.398 3.757 3.518 3.917 1.998-0.32 3.841-1.999 4.199-6.315 2.995 8.314-2.441 13.19-7.477 13.19s-10.623-5.036-7.23-12.871z" fill="#dec62b" stroke="#000" stroke-width=".83px"/>
    
        <g transform="matrix(.99303 0 0 1 .82203 -3)">
            <circle cx="227.85" cy="41.735" r="33.608" fill="#f4ee01" stroke="#000" stroke-width=".84px"/>
        </g>
        <circle cx="227.11" cy="38.736" r="18.268" fill="#fff" stroke="#000" stroke-width=".83px"/>
        <g transform="matrix(.94561 0 0 .94561 13.952 2.6668)">
            <circle cx="225.4" cy="38.143" r="14.927" fill="#f0003c" stroke="#000" stroke-width=".88px"/>
        </g>
    
    
        <g transform="matrix(-.99303 0 0 1 309.86 -3)">
            <circle cx="227.85" cy="41.735" r="33.608" fill="#f4ee01" stroke="#000" stroke-width=".84px"/>
        </g>
        <g transform="matrix(-1 0 0 1 310.68 -2.8422e-14)">
            <circle cx="227.11" cy="38.736" r="18.268" fill="#fff" stroke="#000" stroke-width=".83px"/>
        </g>
        <g transform="matrix(-.94561 0 0 .94561 296.73 2.6668)">
            <circle cx="225.4" cy="38.143" r="14.927" fill="#f0003c" stroke="#000" stroke-width=".88px"/>
        </g>
    
    <path d="m155.16 100.74s-5.153-7.338-11.867-7.182c-2.03 0.312-10.305 0.624-12.335 12.803 0 11.866 8.588 12.803 13.74 10.617-3.591 5.621-13.12 10.28-22.873 4.365-9.353-5.756-11.832-15.669-8.714-26.781-2.798 3.677-5.756 8.554-5.995 16.788-0.48 3.038 0.639 11.671 8.953 14.709 0 0 4.237 0.56 1.999 1.759-3.198 1.919-9.183 1.114-12.581-1.085-10.292-0.2-15.355-4.303-17.254-16.177-6.595 11.908 3.098 19.086 3.098 19.086s1.999 1.199 1.899 3.897c-1.599 8.794-10.588 8.206-10.588 8.206s1.602 2.366 3.913 4.278c3.682 1.644 4.132 5.016-1.499 3.973 0.25 3.099 0.325 5.74-2.348 7.489-4.684-1.093-8.278 2.69-8.284 7.862-3.598 0.799-4.775-0.948-4.775-0.948-2.135 11.188-4.271 22.38-6.745 33.498-4.878 21.923-10.495 43.678-15.309 65.616-0.859 3.914-1.281 7.916-1.701 11.902 0 0-1.609 0.511-2.365 2.219-10.979-0.244-18.298 12.93-18.298 12.93v9.432h-14.548v-29.193s3.57-17.565 11.621-34.887c10.734-27.812 20.493-77.58 25.128-98.317-4.635-13.906-2.927-23.665 2.196-34.643-3.416 1.951-7.319 5.367-11.466 17.321 0-3.415-3.858-21.972 7.013-34.155 0.948-18.001 20.849-26.617 36.595-25.159 32.02-41.169 73.571-22.49 73.571-22.49s41.55-18.679 73.57 22.49c15.747-1.458 35.647 7.158 36.595 25.159 10.872 12.183 7.014 30.74 7.014 34.155-4.148-11.954-8.051-15.37-11.466-17.321 5.123 10.978 6.831 20.737 2.195 34.643 4.636 20.737 14.394 70.505 25.129 98.317 8.05 17.322 11.62 34.887 11.62 34.887v29.193h-14.548v-9.432s-7.319-13.174-18.297-12.93c-0.757-1.708-2.366-2.219-2.366-2.219-0.42-3.986-0.842-7.988-1.701-11.902-4.814-21.938-10.431-43.693-15.309-65.616-2.474-11.118-4.61-22.31-6.745-33.498 0 0-1.177 1.747-4.774 0.948-7e-3 -5.172-3.601-8.955-8.285-7.862-2.673-1.749-2.598-4.39-2.348-7.489-5.631 1.043-5.181-2.329-1.499-3.973 2.312-1.912 3.913-4.278 3.913-4.278s-8.989 0.588-10.587-8.206c-0.1-2.698 1.898-3.897 1.898-3.897s9.693-7.178 3.098-19.086c-1.899 11.874-6.961 15.977-17.254 16.177-3.397 2.199-9.383 3.004-12.58 1.085-2.239-1.199 1.998-1.759 1.998-1.759 8.314-3.038 9.433-11.671 8.954-14.709-0.24-8.234-3.198-13.111-5.996-16.788 3.118 11.112 0.64 21.025-8.714 26.781-9.753 5.915-19.282 1.256-22.873-4.365 5.152 2.186 13.74 1.249 13.74-10.617-2.03-12.179-10.305-12.491-12.335-12.803-6.714-0.156-12.047 7.262-12.047 7.262" fill="#f4ee01" stroke="#000" stroke-width=".83px"/>
    <path d="m287.23 300h-62.033s9.745-10.281 16.185-21.601c0-7.417 0.88-13.544 0.88-13.544s3.609-0.509 8.098 1.248c10.149 3.903 17.818 10.41 17.818 10.41s13.172 3.814 17.898 14.181c2.414 6.329 1.154 9.306 1.154 9.306z" fill="#fff" stroke="#000" stroke-width=".83px"/>
    <g transform="matrix(-1 0 0 1 310.68 -2.8422e-14)">
        <path d="m288.45 300h-63.252s9.745-10.281 16.185-21.601c0-7.417 0.88-12.949 0.88-12.949s3.609-1.104 8.098 0.653c10.149 3.903 17.37 11.31 17.37 11.31 8.024 0.082 14.465 7.285 18.346 13.281 3.243 5.197 2.373 9.306 2.373 9.306z" fill="#fff" stroke="#000" stroke-width=".83px"/>
    </g>
    <path d="m182.68 253.03s9.123 4.684 15.563 9.173c9.058 3.51 40.53 0.583 42.725 0.827 2.196 0.244 1.052 10.262 0.428 15.633-3.748 12.491-8.478 16.651-16.205 21.341h-60.396s9.926-20.394 17.885-46.974z" fill="#2b3885" stroke="#000" stroke-width=".83px"/>
    <g transform="matrix(-1 0 0 1 310.68 -2.8422e-14)">
        <path d="m182.62 253.03s9.186 4.684 15.626 9.173c9.058 3.51 40.53 0.583 42.725 0.827 2.196 0.244 1.052 10.262 0.428 15.633-5.122 13.865-8.677 16.451-16.205 21.341h-58.835s8.302-20.394 16.261-46.974z" fill="#2b3885" stroke="#000" stroke-width=".83px"/>
    </g>
    <g transform="matrix(-1 0 0 1 310.68 -2.8422e-14)">
        <path d="m213.71 199.42s0.515 6.316 3.633 6.076c2.718-0.48 2.957-2.878 3.357-3.997 0.72 2.958 2.398 3.757 3.518 3.917 1.998-0.32 3.841-1.999 4.199-6.315 2.995 8.314-2.441 13.19-7.477 13.19s-10.623-5.036-7.23-12.871z" fill="#dec62b" stroke="#000" stroke-width=".83px"/>
    </g>
    <path d="m90.066 201.2v-9.618" fill="none" stroke="#000" stroke-width=".83px"/>
    <path d="m220.73 201.56-0.517-9.985" fill="none" stroke="#000" stroke-width=".83px"/>
    <path d="m268.45 276.51s2.123 14.934-2.748 23.487" fill="none" stroke="#000" stroke-width=".83px"/>
    <g transform="matrix(-1 0 0 1 311.27 .97209)">
        <path d="m268.45 276.51s2.328 13.962-2.544 22.515" fill="none" stroke="#000" stroke-width=".83px"/>
    </g>
    <path d="m47.352 137.35s4.931 17.892 22.318 27.085" fill="none" stroke="#000" stroke-width=".83px"/>
    <path d="m263.34 137.35s-7.301 18.905-22.329 27.085" fill="none" stroke="#000" stroke-width=".83px"/>
    <g transform="matrix(1.0372 0 0 .8918 -3.7804 16.745)">
        <path d="m153.41 128.19c3.83 0 5.152 5.644 5.152 8.275 0 4.567-2.309 8.275-5.152 8.275-2.844 0-5.153-3.708-5.153-8.275 0-2.559 1.322-8.275 5.153-8.275z" fill="#f0003c" stroke="#000" stroke-width=".86px"/>
    </g>
</svg>
