<?xml version="1.0" encoding="UTF-8" standalone="no"?>
<!DOCTYPE svg PUBLIC "-//W3C//DTD SVG 1.1//EN" "http://www.w3.org/Graphics/SVG/1.1/DTD/svg11.dtd">
<svg width="100%" height="100%" viewBox="0 0 580 100" version="1.1" xmlns="http://www.w3.org/2000/svg" xmlns:xlink="http://www.w3.org/1999/xlink" xml:space="preserve" xmlns:serif="http://www.serif.com/" style="fill-rule:evenodd;clip-rule:evenodd;stroke-linecap:round;stroke-linejoin:round;stroke-miterlimit:1.5;">
    <g transform="matrix(1,0,0,1,-61.1492,-125.244)">
        <path d="M593.838,146.973L599.018,162.512L587.246,162.748C587.246,162.748 584.944,162.798 584.944,165.269C584.944,166.957 585.366,167.56 586.029,168.162C588.982,172.02 597.24,183.472 597.24,183.472C597.24,183.472 600.133,187.51 600.073,190.645C600.133,198.661 595.19,201.253 590.067,204.025C581.87,204.025 568.127,203.845 568.127,203.845L562.944,189.801L578.253,189.921C578.253,189.921 580.122,189.921 580.122,188.053C580.182,187.149 579.158,186.365 579.158,186.365C576.084,182.025 567.585,169.488 567.585,169.488C567.585,169.488 563.848,165.269 563.968,160.146C563.968,149.839 573.07,147.368 575.842,146.885C581.93,146.885 593.838,146.973 593.838,146.973Z" style="fill:white;stroke:none;"/>
    </g>
    <g transform="matrix(1,0,0,1,-61.1492,-125.244)">
        <path d="M626.213,147.065L636.158,146.989L636.158,162.962L627.343,162.962L627.343,186.393C627.343,186.393 627.117,188.804 629.453,189.935C633.747,189.935 637.439,190.01 637.439,190.01L633.295,203.873L615.967,203.948C615.967,203.948 608.809,203.572 608.131,192.119C608.131,179.537 608.056,162.811 608.056,162.811L604.062,162.811L604.062,146.989L608.131,146.989L608.131,135.688L626.138,129.058L626.213,147.065Z" style="fill:white;stroke:none;"/>
    </g>
    <g transform="matrix(1,0,0,1,-61.1492,-125.244)">
        <path d="M62.12,126.031L82.237,126.031L99.038,147.956L115.086,125.956L134.977,125.956L134.977,203.935L114.032,203.935L114.032,159.86L99.038,177.942L84.121,159.935L84.121,203.935L62.12,203.935L62.12,126.031Z" style="fill:white;stroke:none;"/>
    </g>
    <g transform="matrix(1,0,0,1,-61.1492,-125.244)">
        <path d="M137.183,147.009L158.038,146.949L166.537,170.817L175.698,146.949L194.383,146.949L168.104,223.798L148.153,223.798L157.074,199.327L137.183,147.009Z" style="fill:white;stroke:none;"/>
    </g>
    <g transform="matrix(1,0,0,1,-61.1492,-125.244)">
        <path d="M255.075,203.957L236.088,203.957L236.088,179.968L213.019,179.968L213.079,187.2C213.079,187.2 215.611,197.748 220.252,204.258C212.958,209.743 204.098,215.469 204.098,215.469C204.098,215.469 192.73,200.675 192.73,175.6C192.73,148.406 209.564,129.452 236.052,126.509C253.357,126.509 253.828,126.745 253.828,126.745L258.537,143.461L238.759,143.697C227.458,146.522 219.453,148.994 215.332,161.591L236.052,161.591L236.052,146.993L255.123,146.993L255.075,203.957Z" style="fill:white;stroke:none;"/>
    </g>
    <g transform="matrix(1,0,0,1,-61.1492,-125.244)">
        <path d="M267.011,203.796L285.14,203.796L285.14,161.416L294.44,161.416C294.44,161.416 296.748,162.113 297.953,164.825C297.953,172.133 298.104,204.003 298.104,204.003L316.036,204.003L316.036,162.113C315.508,157.094 313.625,149.05 305.412,146.894C292.604,146.894 267.063,146.923 267.063,146.923L267.011,203.796Z" style="fill:white;stroke:none;"/>
    </g>
    <g transform="matrix(1,0,0,1,-61.1492,-125.244)">
        <path d="M322.048,204.03L340.055,204.03L340.055,146.92L322.124,146.92L322.048,204.03Z" style="fill:white;stroke:none;"/>
    </g>
    <g transform="matrix(1,0,0,1,-61.1492,-125.244)">
        <rect x="322.124" y="127.105" width="18.007" height="13.788" style="fill:white;stroke:none;"/>
    </g>
    <g transform="matrix(1,0,0,1,154.228,-125.244)">
        <path d="M322.048,204.03L340.055,204.03L340.055,146.92L322.124,146.92L322.048,204.03Z" style="fill:white;stroke:none;"/>
    </g>
    <g transform="matrix(1,0,0,1,154.228,-125.244)">
        <rect x="322.124" y="127.105" width="18.007" height="13.788" style="fill:white;stroke:none;"/>
    </g>
    <g transform="matrix(1,0,0,1,-61.1492,-125.244)">
        <path d="M349.172,147.071L349.172,203.926L367.08,203.926L367.08,163.015L378.833,163.015L378.833,204.001L397.105,204.001L397.105,163.09L404.941,163.09C404.941,163.09 407.276,163.844 407.955,165.878L407.955,204.001L425.208,204.001L425.208,158.645C424.831,151.488 417.297,146.967 408.557,146.816C398.838,146.816 349.172,147.071 349.172,147.071Z" style="fill:white;stroke:none;"/>
    </g>
    <g transform="matrix(1,0,0,1,-61.1492,-125.244)">
        <path d="M481.12,203.955L481.12,189.734L465.298,189.734L465.298,188.133C465.298,188.133 484.322,176.804 484.228,161.481C483.663,149.266 471.232,146.723 467.464,147.006C461.814,147.006 454.656,146.912 454.656,146.912C444.108,146.912 431.959,152.28 432.713,169.326C432.524,189.103 441.471,199.181 456.351,203.984C470.855,203.984 481.12,203.955 481.12,203.955Z" style="fill:white;stroke:none;"/>
    </g>
    <g transform="matrix(1,0,0,1,-61.1492,-125.244)">
        <path d="M451.973,175.938L455.213,175.863C455.213,175.863 460.035,173.904 465.083,166.897C465.083,163.657 465.158,163.657 465.158,163.657C465.158,163.657 464.781,162.678 463.274,161.849C459.206,161.849 457.021,161.774 457.021,161.774C457.021,161.774 452.576,164.034 451.973,166.822L451.973,175.938Z" style="fill:#07070a;stroke:none;"/>
    </g>
    <g transform="matrix(1,0,0,1,-61.1492,-125.244)">
        <path d="M489.081,126.827L509.047,126.827L509.047,186.818L537.217,186.818L531.189,203.959L488.997,203.959L489.081,126.827Z" style="fill:white;stroke:none;"/>
    </g>
</svg>
